PathFileType	4	(X/Y/Z)	9_2_82_p0_0-226.trc
DataRate	CameraRate	NumFrames	NumMarkers	Units	OrigDataRate	OrigDataStartFrame	OrigNumFrames
60.0	60.0	5	27	m	60.0	141	227
Frame#	Time	RHip			RKnee			RAnkle			RBigToe			RSmallToe			RHeel			LHip			LKnee			LAnkle			LBigToe			LSmallToe			LHeel			Neck			Head			Nose			RShoulder			RElbow			RWrist			RThumb			RIndex			RPinky			LShoulder			LElbow			LWrist			LThumb			LIndex			LPinky			
		X1	Y1	Z1	X2	Y2	Z2	X3	Y3	Z3	X4	Y4	Z4	X5	Y5	Z5	X6	Y6	Z6	X7	Y7	Z7	X8	Y8	Z8	X9	Y9	Z9	X10	Y10	Z10	X11	Y11	Z11	X12	Y12	Z12	X13	Y13	Z13	X14	Y14	Z14	X15	Y15	Z15	X16	Y16	Z16	X17	Y17	Z17	X18	Y18	Z18	X19	Y19	Z19	X20	Y20	Z20	X21	Y21	Z21	X22	Y22	Z22	X23	Y23	Z23	X24	Y24	Z24	X25	Y25	Z25	X26	Y26	Z26	X27	Y27	Z27	
141	2.35	0.3083329680126124	0.5062082037311918	0.9875336927262842	0.3191963581852523	0.5528522328704916	1.442413151486171	0.3153238066950531	0.6353221532934715	1.8627483769826767	0.28508252800941297	0.45001045430722675	1.8980300003403558	0.35342799862145524	0.5121506572865028	1.918409191420809	0.282967789460955	0.7160328834533661	1.9448052369613231	0.09973799413212041	0.5027026781089644	0.9925120111513619	0.0959047209207803	0.528726341245732	1.4415185589521968	0.10144829307475886	0.5934109455098724	1.8655773657135217	0.12311436737325608	0.4350766665334008	1.9013966719616453	0.06355827313092186	0.44856338211912694	1.8781535882082583	0.11356718461171594	0.6781222082996776	1.9363055828791726	0.21985364034908236	0.4187036804460969	0.5074468668428752	0.22736056266973645	0.3351979568001812	0.26454104670613443	0.23586017095490552	0.2984042339289274	0.4118055408987986	0.33849896747553515	0.41154968109579054	0.5620345311730618	0.361709286578851	0.35057609152905	0.7676279470533288	0.28913548030688535	0.27819387815154695	0.5962281852253776	0.2349928953893969	0.30993005740747404	0.5047603562615128	0.24819655799029733	0.22088865391338125	0.5024344849711315	0.2582374145429563	0.20313750972219766	0.5471995996125623	0.06592362697826652	0.4517920452116027	0.5763272107932779	0.012479660881680007	0.471124368494326	0.8368600379655963	-0.07561923200290578	0.380829783792844	1.0557507305443057	-0.13884277404422796	0.40739655671026714	1.1764113853438385	-0.16405102641044048	0.3821788243804479	1.170241840875781	-0.14124158485662175	0.4628851827492089	1.1817109702297326
142	2.3666666666666667	0.3085897724695371	0.5050278656589436	0.9910840894551682	0.3192033176490622	0.5528309915664816	1.4424973973254638	0.3153846789890795	0.6351062787058203	1.862477726992566	0.28512750244010193	0.45029450991653547	1.8979935327492694	0.35246863279352253	0.5132813840012191	1.9229869351820705	0.28310939210190766	0.7160952424992685	1.9441367761071644	0.09968116307647529	0.5025308640354293	0.9926384785006039	0.09586416069929099	0.5286981941938671	1.441376442854348	0.10045758224117542	0.5910868779527201	1.8593368315814411	0.11855909263596895	0.43296383472199507	1.9004278651599893	0.057929497366707765	0.46229548194925835	1.8856580308121758	0.11302300699421455	0.6791336817364582	1.9317551645521478	0.21987905927122997	0.41894037846488424	0.5073416012053305	0.22739040080433276	0.3352549479351463	0.26462150394948114	0.23585864518273222	0.2985625765080314	0.4116960472861436	0.33846908882618254	0.4113700400079671	0.5586538841543587	0.3539547308717961	0.353048651660519	0.7679152129762924	0.28947572894393775	0.2778176024462924	0.5953221965710377	0.23183995210427302	0.30774974146127154	0.5049018303417553	0.24400132899788662	0.23309062671075276	0.5001485395047556	0.2554927933261065	0.2007758312434108	0.5442463550114008	0.06591545168432017	0.45153533661190304	0.5764195485320996	0.013107431771134926	0.4697674167052419	0.8404784290982629	-0.06932216621008348	0.3951679943697444	1.0592677393460173	-0.12733543678669454	0.39783042172319977	1.1703509535911607	-0.1602251291376419	0.3848318076113548	1.1752405076779837	-0.141776510534158	0.4636466625798391	1.1895870329325868
143	2.3833333333333333	0.30852189954259585	0.5047501088093886	0.9908265319186237	0.3192070473960536	0.5527916871185445	1.4423928870812253	0.3153264279512357	0.6352454798785951	1.862647964701902	0.28513796409819686	0.4501555413221357	1.898016913215624	0.35246155405886004	0.5132325150322516	1.9230480388203757	0.2829917126909136	0.716042494077966	1.9443876781164198	0.09973233112130007	0.5023609616843732	0.992449096006262	0.09521324152999112	0.5264092670245769	1.4358274211656255	0.1004445893730092	0.591131647077761	1.8594268101270914	0.11859196989651179	0.4329087647125498	1.9004923832381482	0.05803214294687099	0.46206028020266887	1.8854971920460475	0.11305847628427503	0.6792726117163317	1.932068044028044	0.21543596508816124	0.43174387106934436	0.5085294033532056	0.22738649262355354	0.335124017127565	0.2614742180058115	0.23580497261725555	0.29874218123288393	0.4117869108988144	0.3385487792291116	0.41047051631814035	0.5623643087989842	0.3498529530555145	0.3510537187382618	0.7672883886414353	0.28558533557641114	0.28662187505607867	0.5897352190855806	0.2382485020301506	0.3224457456545077	0.501963027871153	0.24409891877562342	0.23418014560858033	0.4935810078318644	0.2574721368132347	0.20934490484761525	0.5306254114663255	0.0660107949023438	0.4529383013592252	0.5802452136381347	0.022825636934093084	0.45835008201395533	0.8384437868639248	-0.065281480062826	0.39772682226298234	1.0634046157745316	-0.11967028629753504	0.4263280230970843	1.1779912856583683	-0.15381874198039455	0.39984380194421204	1.1834937519913777	-0.13178761104053016	0.4520769905095274	1.1857331772727353
144	2.4	0.30845087407735233	0.504766995048286	0.9910099625006861	0.31919238628755603	0.5529852306439151	1.442500233766423	0.3149466815185196	0.6373191209564079	1.8592967716641142	0.28523116447449015	0.44997814795750357	1.897810031882913	0.3483419877822211	0.5017031946893584	1.9126318623087633	0.28305549733036506	0.7162130156813077	1.9444479447232772	0.09968436341986094	0.5022969334820653	0.9927549152841072	0.09633971546109027	0.5270505333563982	1.4448131326799603	0.1014473626382435	0.5935522069377628	1.8655119262746684	0.11865002481664735	0.4330143319119847	1.9004626890367786	0.057951633400718953	0.4623537749848513	1.8857817970578155	0.11638837109685213	0.6943590347019831	1.939665706690373	0.2152184019029011	0.43199452366095675	0.5085239004104146	0.2273535538815012	0.33518158611375487	0.26147333663515016	0.23574187636014665	0.2986886290395215	0.4117901498405305	0.33465213722617393	0.42386687021564046	0.5638507552620953	0.3496220644381351	0.3518221789564	0.7643006929997449	0.28505085586245277	0.28521725208390364	0.5854862608244858	0.2337022787519996	0.33454164415534354	0.5000761377346828	0.23999666387267027	0.24538801155323076	0.4914443002601237	0.2574150117923289	0.20868350057749163	0.5266106894706449	0.06606658319133987	0.4530649614536108	0.5802616051700541	0.033648427293993	0.43180081482377675	0.8370336075706858	-0.053353325901620646	0.4007100229812219	1.0637119280737621	-0.09526466692526056	0.3873561663553324	1.1628997919119828	-0.14091505723160053	0.40574546815402807	1.185317386708666	-0.12181774392448413	0.44148838345988123	1.182357758852078
145	2.4166666666666665	0.3081278011336986	0.5059243774706229	0.987572496229439	0.3191792274028186	0.5529633984158161	1.4424061684602967	0.31540040617652926	0.6352378399896219	1.8625767048762676	0.2852242842912987	0.4501718117154404	1.897823539345952	0.3520463155932897	0.515378549007376	1.9195780755439595	0.28308718924202386	0.7160992930183249	1.944260436402464	0.09968944777571873	0.5023964295419059	0.992996845604416	0.1000196366388147	0.5314498171645586	1.441951341678223	0.10144435536238361	0.5933603792520428	1.8653490560912185	0.11949157543997102	0.43557173000928257	1.9062276981057567	0.0580039963549903	0.4626202196577718	1.8859633900672645	0.12216963590659727	0.6772941934278173	1.9306849795285084	0.2110556748003265	0.4307927723892162	0.5085703274359269	0.22734606488090833	0.3352336330314551	0.2615156451983748	0.23157387657772724	0.3109928222178543	0.41245674524207254	0.3346675735623888	0.42395172166965667	0.56390203563233	0.34860645433703086	0.3589499860904158	0.7591303012377368	0.2819335506879574	0.27494165641169244	0.5844525934600623	0.23670975431621286	0.3450288866784465	0.5008374707591953	0.24026736619323313	0.24612491344515386	0.49148494546522253	0.25724882147876743	0.20876176804809238	0.5258657570633735	0.06606448509632899	0.45309743126567414	0.5802347977631007	0.02884600642323038	0.4443881163764733	0.8363317764147028	-0.04862311750349988	0.40297082456909555	1.0603694724583246	-0.08431210732163247	0.36306598660624645	1.1648493812201053	-0.12154207589820194	0.38461548549568114	1.1815029660222893	-0.1309307534330538	0.45144171773688274	1.1895974381754197
